<svg width="21" height="21" viewBox="0 0 21 21" fill="none" xmlns="http://www.w3.org/2000/svg">
<path d="M10.5 6.71745V19.7174M10.5 6.71745C10.1383 5.22685 9.51545 3.95246 8.71274 3.06055C7.91003 2.16865 6.96469 1.70059 6 1.71739C5.33696 1.71739 4.70107 1.98079 4.23223 2.44963C3.76339 2.91847 3.5 3.55435 3.5 4.21739C3.5 4.88044 3.76339 5.51632 4.23223 5.98516C4.70107 6.454 5.33696 6.71739 6 6.71739M10.5 6.71745C10.8617 5.22685 11.4846 3.95246 12.2873 3.06055C13.09 2.16865 14.0353 1.70059 15 1.71739C15.663 1.71739 16.2989 1.98079 16.7678 2.44963C17.2366 2.91847 17.5 3.55435 17.5 4.21739C17.5 4.88044 17.2366 5.51632 16.7678 5.98516C16.2989 6.454 15.663 6.71739 15 6.71739M17.5 10.7174V17.7174C17.5 18.2479 17.2893 18.7566 16.9142 19.1317C16.5391 19.5067 16.0304 19.7174 15.5 19.7174H5.5C4.96957 19.7174 4.46086 19.5067 4.08579 19.1317C3.71071 18.7566 3.5 18.2479 3.5 17.7174V10.7174M2.5 6.71745H18.5C19.0523 6.71745 19.5 7.16516 19.5 7.71745V9.71745C19.5 10.2697 19.0523 10.7174 18.5 10.7174H2.5C1.94772 10.7174 1.5 10.2697 1.5 9.71745V7.71745C1.5 7.16516 1.94772 6.71745 2.5 6.71745Z" stroke="white" stroke-width="2" stroke-linecap="round" stroke-linejoin="round"/>
</svg>
